<svg width="100" height="100" viewBox="0 0 100 100" fill="none" xmlns="http://www.w3.org/2000/svg">
<g clip-path="url(#clip0_2534_684)">
<path d="M1 1H99V99H1V1Z" stroke="white" stroke-width="2"/>
<path d="M37.6191 73H62.1977C68.0569 73 72.8169 68.2323 72.8169 62.3809L72.8144 37.6191C72.8144 31.76 68.0467 27 62.1952 27H37.6191C31.76 27 27 31.7677 27 37.6191V62.3834C27 68.2351 31.7676 73 37.6191 73ZM30.8542 37.6191C30.8542 33.8878 33.8855 30.8543 37.6191 30.8543H62.1977C65.929 30.8543 68.9626 33.8855 68.9626 37.6191V62.3834C68.9626 66.1147 65.9313 69.1483 62.1977 69.1483L37.6191 69.1458C33.8878 69.1458 30.8542 66.1145 30.8542 62.3809V37.6191Z" fill="white"/>
<path d="M49.9073 61.2599C56.1203 61.2599 61.1739 56.2037 61.1739 49.9932C61.1739 43.7802 56.1202 38.7266 49.9073 38.7266C43.6943 38.7266 38.6406 43.7803 38.6406 49.9932C38.6406 56.2062 43.6943 61.2599 49.9073 61.2599ZM49.9073 42.5808C53.9924 42.5808 57.3197 45.9081 57.3197 49.9932C57.3197 54.0783 53.9924 57.4056 49.9073 57.4056C45.8222 57.4056 42.4949 54.0783 42.4949 49.9932C42.4949 45.9081 45.8222 42.5808 49.9073 42.5808Z" fill="white"/>
<path d="M63.1781 34.7326C66.9696 36.3034 64.6135 41.987 60.8219 40.4187C57.0329 38.8479 59.3866 33.1617 63.1781 34.7326Z" fill="white"/>
</g>
<defs>
<clipPath id="clip0_2534_684">
<rect width="100" height="100" fill="white"/>
</clipPath>
</defs>
</svg>
